<svg width="92" height="99" viewBox="0 0 92 99" fill="none" xmlns="http://www.w3.org/2000/svg">
<g clip-path="url(#clip0_74_500)">
<path d="M28.9423 89.7188C63.6507 89.7188 82.6401 58.7677 82.6401 31.9353C82.6401 31.0652 82.6221 30.1757 82.5862 29.3056C86.2802 26.4309 89.4681 22.8701 92 18.7907C88.5597 20.4378 84.907 21.5135 81.1666 21.9811C85.1049 19.4408 88.0537 15.4502 89.4664 10.7489C85.7614 13.1116 81.7097 14.7784 77.4848 15.6776C74.6382 12.4228 70.8744 10.2677 66.7755 9.54555C62.6765 8.82341 58.4706 9.57442 54.808 11.6825C51.1454 13.7906 48.2302 17.1383 46.5131 21.208C44.7959 25.2778 44.3725 29.8429 45.3082 34.1976C37.8062 33.7925 30.4671 31.6954 23.7666 28.0422C17.0661 24.3891 11.1538 19.2615 6.41305 12.9918C4.00353 17.4622 3.26622 22.7521 4.35095 27.7865C5.43569 32.8208 8.26107 37.2218 12.2529 40.095C9.25607 39.9926 6.32491 39.1244 3.70156 37.562V37.8134C3.69888 42.5047 5.20604 47.0523 7.96685 50.683C10.7277 54.3138 14.5717 56.8037 18.8456 57.7294C16.0695 58.5467 13.1559 58.6658 10.3302 58.0775C11.5362 62.112 13.8827 65.6408 17.0421 68.1712C20.2015 70.7017 24.0163 72.1076 27.954 72.1927C21.269 77.8434 13.011 80.9084 4.51016 80.8939C3.0026 80.8914 1.49653 80.7919 0 80.5961C8.63595 86.5581 18.6819 89.7246 28.9423 89.7188Z" fill="white"/>
</g>
<defs>
<clipPath id="clip0_74_500">
<rect width="92" height="99" fill="white"/>
</clipPath>
</defs>
</svg>
