<svg width="88" height="82" viewBox="0 0 88 82" fill="none" xmlns="http://www.w3.org/2000/svg">
<g clip-path="url(#clip0_74_498)">
<path d="M81.4859 0H6.49687C2.90469 0 0 2.64258 0 5.90977V76.0742C0 79.3414 2.90469 82 6.49687 82H81.4859C85.0781 82 88 79.3414 88 76.0902V5.90977C88 2.64258 85.0781 0 81.4859 0ZM26.1078 69.8762H13.0453V30.734H26.1078V69.8762ZM19.5766 25.4008C15.3828 25.4008 11.9969 22.2457 11.9969 18.3539C11.9969 14.4621 15.3828 11.307 19.5766 11.307C23.7531 11.307 27.1391 14.4621 27.1391 18.3539C27.1391 22.2297 23.7531 25.4008 19.5766 25.4008ZM74.9891 69.8762H61.9437V50.8496C61.9437 46.3172 61.8578 40.4715 55.1547 40.4715C48.3656 40.4715 47.3344 45.4203 47.3344 50.5293V69.8762H34.3063V30.734H46.8187V36.0832H46.9906C48.7266 33.0082 52.9891 29.757 59.3313 29.757C72.5484 29.757 74.9891 37.8609 74.9891 48.3992V69.8762V69.8762Z" fill="white"/>
</g>
<defs>
<clipPath id="clip0_74_498">
<rect width="88" height="82" fill="white"/>
</clipPath>
</defs>
</svg>
