<svg width="89" height="88" viewBox="0 0 89 88" fill="none" xmlns="http://www.w3.org/2000/svg">
<g clip-path="url(#clip0_74_502)">
<path d="M44.4536 7.92344C56.3311 7.92344 57.7376 7.975 62.4087 8.18125C66.7499 8.37031 69.0941 9.09219 70.6569 9.69375C72.7233 10.4844 74.2167 11.4469 75.7621 12.9766C77.325 14.5234 78.28 15.9844 79.0788 18.0297C79.6866 19.5766 80.4159 21.9141 80.6069 26.1937C80.8153 30.8344 80.8674 32.2266 80.8674 43.9656C80.8674 55.7219 80.8153 57.1141 80.6069 61.7375C80.4159 66.0344 79.6866 68.3547 79.0788 69.9016C78.28 71.9469 77.3076 73.425 75.7621 74.9547C74.1993 76.5016 72.7233 77.4469 70.6569 78.2375C69.0941 78.8391 66.7325 79.5609 62.4087 79.75C57.7202 79.9562 56.3137 80.0078 44.4536 80.0078C32.5762 80.0078 31.1696 79.9562 26.4985 79.75C22.1573 79.5609 19.8131 78.8391 18.2503 78.2375C16.1839 77.4469 14.6905 76.4844 13.1451 74.9547C11.5822 73.4078 10.6272 71.9469 9.82841 69.9016C9.22065 68.3547 8.49133 66.0172 8.30032 61.7375C8.09195 57.0969 8.03985 55.7047 8.03985 43.9656C8.03985 32.2094 8.09195 30.8172 8.30032 26.1937C8.49133 21.8969 9.22065 19.5766 9.82841 18.0297C10.6272 15.9844 11.5996 14.5062 13.1451 12.9766C14.7079 11.4297 16.1839 10.4844 18.2503 9.69375C19.8131 9.09219 22.1747 8.37031 26.4985 8.18125C31.1696 7.975 32.5762 7.92344 44.4536 7.92344ZM44.4536 0C32.3851 0 30.8744 0.0515625 26.1339 0.257812C21.4107 0.464062 18.1635 1.22031 15.3504 2.30312C12.4158 3.4375 9.9326 4.93281 7.46682 7.39062C4.98367 9.83125 3.47294 12.2891 2.32687 15.1766C1.23289 17.9781 0.468847 21.175 0.26047 25.85C0.0520941 30.5594 0 32.0547 0 44C0 55.9453 0.0520941 57.4406 0.26047 62.1328C0.468847 66.8078 1.23289 70.0219 2.32687 72.8062C3.47294 75.7109 4.98367 78.1687 7.46682 80.6094C9.9326 83.05 12.4158 84.5625 15.333 85.6797C18.1635 86.7625 21.3933 87.5187 26.1165 87.725C30.8571 87.9312 32.3678 87.9828 44.4362 87.9828C56.5047 87.9828 58.0154 87.9312 62.756 87.725C67.4792 87.5187 70.7264 86.7625 73.5395 85.6797C76.4567 84.5625 78.9399 83.05 81.4057 80.6094C83.8714 78.1687 85.3995 75.7109 86.5282 72.8234C87.6222 70.0219 88.3863 66.825 88.5946 62.15C88.803 57.4578 88.8551 55.9625 88.8551 44.0172C88.8551 32.0719 88.803 30.5766 88.5946 25.8844C88.3863 21.2094 87.6222 17.9953 86.5282 15.2109C85.4343 12.2891 83.9235 9.83125 81.4404 7.39062C78.9746 4.95 76.4915 3.4375 73.5742 2.32031C70.7437 1.2375 67.5139 0.48125 62.7907 0.275C58.0328 0.0515625 56.5221 0 44.4536 0Z" fill="white"/>
<path d="M44.4537 21.3984C31.8469 21.3984 21.6191 31.5219 21.6191 44C21.6191 56.4781 31.8469 66.6016 44.4537 66.6016C57.0605 66.6016 67.2883 56.4781 67.2883 44C67.2883 31.5219 57.0605 21.3984 44.4537 21.3984ZM44.4537 58.6609C36.2749 58.6609 29.6416 52.0953 29.6416 44C29.6416 35.9047 36.2749 29.3391 44.4537 29.3391C52.6325 29.3391 59.2658 35.9047 59.2658 44C59.2658 52.0953 52.6325 58.6609 44.4537 58.6609Z" fill="white"/>
<path d="M73.522 20.5046C73.522 23.4265 71.1257 25.7812 68.1911 25.7812C65.2391 25.7812 62.8601 23.4093 62.8601 20.5046C62.8601 17.5827 65.2564 15.228 68.1911 15.228C71.1257 15.228 73.522 17.5999 73.522 20.5046Z" fill="white"/>
</g>
<defs>
<clipPath id="clip0_74_502">
<rect width="88.9072" height="88" fill="white"/>
</clipPath>
</defs>
</svg>
