<svg width="88" height="88" viewBox="0 0 88 88" fill="none" xmlns="http://www.w3.org/2000/svg">
<g clip-path="url(#clip0_74_504)">
<path d="M88 44C88 19.6995 68.3005 0 44 0C19.6995 0 0 19.6995 0 44C0 65.9613 16.0901 84.1646 37.125 87.4655V56.7187H25.9531V44H37.125V34.3063C37.125 23.2788 43.6941 17.1875 53.7445 17.1875C58.557 17.1875 63.5938 18.0469 63.5938 18.0469V28.875H58.0456C52.58 28.875 50.875 32.267 50.875 35.75V44H63.0781L61.1273 56.7187H50.875V87.4655C71.9099 84.1646 88 65.9613 88 44Z" fill="white"/>
</g>
<defs>
<clipPath id="clip0_74_504">
<rect width="88" height="88" fill="white"/>
</clipPath>
</defs>
</svg>
